<svg width="38" height="38" viewBox="0 0 38 38" fill="none" xmlns="http://www.w3.org/2000/svg">
<path d="M19 0C8.52341 0 0 8.52279 0 19C0 22.6862 1.057 26.24 3.06338 29.3263L0.102669 36.2348C-0.101432 36.7098 0.00494792 37.2628 0.371094 37.6289C0.613542 37.8714 0.93763 38 1.26667 38C1.4349 38 1.60498 37.9666 1.76579 37.8973L8.67432 34.936C11.76 36.9436 15.3138 38 19 38C29.4772 38 38 29.4772 38 19C38 8.52279 29.4772 0 19 0ZM28.7523 25.8009C28.7523 25.8009 27.1727 27.8271 26.031 28.3008C23.129 29.502 19.0322 28.3008 14.365 23.635C9.69915 18.9678 8.49743 14.871 9.69915 11.969C10.1729 10.826 12.1991 9.24766 12.1991 9.24766C12.7483 8.81966 13.6018 8.87285 14.0941 9.36517L16.3863 11.6573C16.8786 12.1496 16.8786 12.9561 16.3863 13.4484L14.9477 14.8858C14.9477 14.8858 14.365 16.6349 17.8645 20.1355C21.3639 23.635 23.1142 23.0523 23.1142 23.0523L24.5516 21.6137C25.0439 21.1214 25.8504 21.1214 26.3427 21.6137L28.6348 23.9059C29.1271 24.3982 29.1803 25.2505 28.7523 25.8009Z" fill="#282828"/>
</svg>
